<svg width="15" height="14" viewBox="0 0 15 14" fill="none" xmlns="http://www.w3.org/2000/svg">
<path d="M5.68589 1.68484C6.29196 0.597241 7.86733 0.597241 8.47341 1.68484L13.9578 11.5217C14.5455 12.5756 13.7773 13.8684 12.5637 13.8684H1.5963C0.382025 13.8684 -0.386189 12.5756 0.201477 11.5217L5.68589 1.68554V1.68484ZM7.78662 11.058C7.78962 10.964 7.77355 10.8704 7.73937 10.7827C7.70519 10.695 7.6536 10.615 7.58765 10.5474C7.52171 10.4799 7.44276 10.4262 7.35549 10.3895C7.26822 10.3528 7.17442 10.3339 7.07965 10.3339C6.98488 10.3339 6.89108 10.3528 6.80381 10.3895C6.71654 10.4262 6.63759 10.4799 6.57165 10.5474C6.5057 10.615 6.45411 10.695 6.41993 10.7827C6.38575 10.8704 6.36968 10.964 6.37268 11.058C6.37849 11.2402 6.45552 11.4131 6.58747 11.5399C6.71942 11.6668 6.89593 11.7377 7.07965 11.7377C7.26337 11.7377 7.43988 11.6668 7.57183 11.5399C7.70378 11.4131 7.78081 11.2402 7.78662 11.058ZM7.60324 5.54062C7.58489 5.4083 7.51659 5.28783 7.41215 5.20357C7.3077 5.11932 7.17491 5.07757 7.04062 5.08676C6.90634 5.09595 6.78058 5.1554 6.68879 5.25309C6.59699 5.35078 6.54601 5.47942 6.54615 5.61299L6.54898 8.77532L6.55394 8.84698C6.57228 8.97931 6.64059 9.09978 6.74503 9.18403C6.84947 9.26829 6.98227 9.31004 7.11655 9.30085C7.25084 9.29166 7.37659 9.2322 7.46839 9.13451C7.56018 9.03682 7.61117 8.90819 7.61103 8.77462L7.6082 5.61158L7.60324 5.54062Z" fill="#202029"/>
</svg>
