<svg width="28" height="35" viewBox="0 0 28 35" fill="none" xmlns="http://www.w3.org/2000/svg">
<path id="Vector" d="M5.25 17.9375C5.25 17.5894 5.38828 17.2556 5.63442 17.0094C5.88056 16.7633 6.2144 16.625 6.5625 16.625C6.9106 16.625 7.24444 16.7633 7.49058 17.0094C7.73672 17.2556 7.875 17.5894 7.875 17.9375C7.875 18.2856 7.73672 18.6194 7.49058 18.8656C7.24444 19.1117 6.9106 19.25 6.5625 19.25C6.2144 19.25 5.88056 19.1117 5.63442 18.8656C5.38828 18.6194 5.25 18.2856 5.25 17.9375ZM6.5625 21.875C6.2144 21.875 5.88056 22.0133 5.63442 22.2594C5.38828 22.5056 5.25 22.8394 5.25 23.1875C5.25 23.5356 5.38828 23.8694 5.63442 24.1156C5.88056 24.3617 6.2144 24.5 6.5625 24.5C6.9106 24.5 7.24444 24.3617 7.49058 24.1156C7.73672 23.8694 7.875 23.5356 7.875 23.1875C7.875 22.8394 7.73672 22.5056 7.49058 22.2594C7.24444 22.0133 6.9106 21.875 6.5625 21.875ZM5.25 28.4375C5.25 28.0894 5.38828 27.7556 5.63442 27.5094C5.88056 27.2633 6.2144 27.125 6.5625 27.125C6.9106 27.125 7.24444 27.2633 7.49058 27.5094C7.73672 27.7556 7.875 28.0894 7.875 28.4375C7.875 28.7856 7.73672 29.1194 7.49058 29.3656C7.24444 29.6117 6.9106 29.75 6.5625 29.75C6.2144 29.75 5.88056 29.6117 5.63442 29.3656C5.38828 29.1194 5.25 28.7856 5.25 28.4375ZM11.8125 16.625C11.4644 16.625 11.1306 16.7633 10.8844 17.0094C10.6383 17.2556 10.5 17.5894 10.5 17.9375C10.5 18.2856 10.6383 18.6194 10.8844 18.8656C11.1306 19.1117 11.4644 19.25 11.8125 19.25H21.4375C21.7856 19.25 22.1194 19.1117 22.3656 18.8656C22.6117 18.6194 22.75 18.2856 22.75 17.9375C22.75 17.5894 22.6117 17.2556 22.3656 17.0094C22.1194 16.7633 21.7856 16.625 21.4375 16.625H11.8125ZM10.5 23.1875C10.5 22.8394 10.6383 22.5056 10.8844 22.2594C11.1306 22.0133 11.4644 21.875 11.8125 21.875H21.4375C21.7856 21.875 22.1194 22.0133 22.3656 22.2594C22.6117 22.5056 22.75 22.8394 22.75 23.1875C22.75 23.5356 22.6117 23.8694 22.3656 24.1156C22.1194 24.3617 21.7856 24.5 21.4375 24.5H11.8125C11.4644 24.5 11.1306 24.3617 10.8844 24.1156C10.6383 23.8694 10.5 23.5356 10.5 23.1875ZM11.8125 27.125C11.4644 27.125 11.1306 27.2633 10.8844 27.5094C10.6383 27.7556 10.5 28.0894 10.5 28.4375C10.5 28.7856 10.6383 29.1194 10.8844 29.3656C11.1306 29.6117 11.4644 29.75 11.8125 29.75H21.4375C21.7856 29.75 22.1194 29.6117 22.3656 29.3656C22.6117 29.1194 22.75 28.7856 22.75 28.4375C22.75 28.0894 22.6117 27.7556 22.3656 27.5094C22.1194 27.2633 21.7856 27.125 21.4375 27.125H11.8125ZM26.9745 11.2245L16.7738 1.0255C16.7467 1.00036 16.7181 0.976974 16.688 0.9555C16.6664 0.938792 16.6453 0.92128 16.625 0.903C16.5046 0.789374 16.3765 0.684128 16.2418 0.588C16.1969 0.559093 16.1502 0.533364 16.1017 0.511L16.0177 0.469L15.9302 0.41825C15.8357 0.364 15.7395 0.308 15.6398 0.266C15.2913 0.126811 14.9224 0.0452452 14.5477 0.0244999C14.5131 0.0222465 14.4787 0.0181574 14.4445 0.0122499C14.397 0.00491419 14.3491 0.000821441 14.301 0H3.5C2.57174 0 1.6815 0.368749 1.02513 1.02513C0.368749 1.6815 0 2.57174 0 3.5V31.5C0 32.4283 0.368749 33.3185 1.02513 33.9749C1.6815 34.6312 2.57174 35 3.5 35H24.5C25.4283 35 26.3185 34.6312 26.9749 33.9749C27.6313 33.3185 28 32.4283 28 31.5V13.699C27.9998 12.7708 27.6309 11.8807 26.9745 11.2245ZM25.375 31.5C25.375 31.7321 25.2828 31.9546 25.1187 32.1187C24.9546 32.2828 24.7321 32.375 24.5 32.375H3.5C3.26794 32.375 3.04538 32.2828 2.88128 32.1187C2.71719 31.9546 2.625 31.7321 2.625 31.5V3.5C2.625 3.26794 2.71719 3.04538 2.88128 2.88128C3.04538 2.71719 3.26794 2.625 3.5 2.625H14V10.5C14 11.4283 14.3687 12.3185 15.0251 12.9749C15.6815 13.6313 16.5717 14 17.5 14H25.375V31.5ZM16.625 4.58675L23.4115 11.375H17.5C17.2679 11.375 17.0454 11.2828 16.8813 11.1187C16.7172 10.9546 16.625 10.7321 16.625 10.5V4.58675Z" fill="#FFB628"/>
</svg>
