<svg width="131" height="131" viewBox="0 0 131 131" fill="none" xmlns="http://www.w3.org/2000/svg">

    <defs>
        <linearGradient id="paint0_linear_27_1367" x1="79.4534" y1="27.4534" x2="65.4534" y2="112.953" gradientUnits="userSpaceOnUse">
            <stop stop-color="#FFB628"/>
            <stop offset="0.935" stop-color="#C28104"/>
        </linearGradient>
        <linearGradient id="paint1_linear_27_1367" x1="65.4534" y1="17.9534" x2="65.4534" y2="112.953" gradientUnits="userSpaceOnUse">
            <stop stop-color="#C98809"/>
            <stop offset="0.895" stop-color="#FFB729"/>
        </linearGradient>
    </defs><circle cx="65.4534" cy="65.4534" r="44.5" transform="rotate(32 65.4534 65.4534)" fill="url(#paint0_linear_27_1367)" stroke="url(#paint1_linear_27_1367)" stroke-width="6"/>

    <path d="M39.7202 63.725H37.728C37.6712 63.3983 37.5665 63.1089 37.4138 62.8568C37.2611 62.6011 37.0711 62.3845 36.8438 62.2069C36.6165 62.0294 36.3573 61.8962 36.0661 61.8074C35.7785 61.7151 35.4677 61.6689 35.1339 61.6689C34.5409 61.6689 34.0153 61.8181 33.5572 62.1164C33.0991 62.4111 32.7405 62.8443 32.4812 63.4161C32.222 63.9843 32.0924 64.6785 32.0924 65.4988C32.0924 66.3333 32.222 67.0365 32.4812 67.6082C32.744 68.1764 33.1027 68.6061 33.5572 68.8973C34.0153 69.1849 34.5391 69.3287 35.1286 69.3287C35.4553 69.3287 35.7607 69.2861 36.0448 69.2009C36.3324 69.1121 36.5899 68.9825 36.8172 68.812C37.048 68.6416 37.2415 68.4321 37.3978 68.1835C37.5576 67.9349 37.6677 67.6508 37.728 67.3312L39.7202 67.3419C39.6457 67.8603 39.4841 68.3468 39.2355 68.8014C38.9905 69.2559 38.6691 69.6572 38.2714 70.0052C37.8736 70.3497 37.4084 70.6196 36.8758 70.8149C36.3431 71.0066 35.7518 71.1025 35.102 71.1025C34.1432 71.1025 33.2873 70.8806 32.5345 70.4367C31.7817 69.9928 31.1886 69.3518 30.7554 68.5137C30.3221 67.6757 30.1055 66.6707 30.1055 65.4988C30.1055 64.3234 30.3239 63.3184 30.7607 62.4839C31.1975 61.6458 31.7923 61.0049 32.5452 60.561C33.298 60.1171 34.1503 59.8951 35.102 59.8951C35.7092 59.8951 36.2738 59.9804 36.7959 60.1508C37.3179 60.3213 37.7831 60.5716 38.1915 60.9019C38.5998 61.2286 38.9354 61.6299 39.1982 62.1057C39.4645 62.578 39.6386 63.1178 39.7202 63.725ZM42.7991 70.9534H40.6897L44.5302 60.0443H46.9699L50.8158 70.9534H48.7064L45.7927 62.2815H45.7074L42.7991 70.9534ZM42.8683 66.676H48.6211V68.2634H42.8683V66.676ZM52.2526 70.9534V60.0443H56.3435C57.1816 60.0443 57.8847 60.2005 58.4529 60.513C59.0246 60.8255 59.4561 61.2552 59.7473 61.8021C60.042 62.3454 60.1894 62.9633 60.1894 63.6558C60.1894 64.3554 60.042 64.9768 59.7473 65.5201C59.4526 66.0635 59.0175 66.4914 58.4423 66.8039C57.867 67.1128 57.1585 67.2673 56.3169 67.2673H53.6056V65.6426H56.0506C56.5406 65.6426 56.9419 65.5574 57.2544 65.387C57.5669 65.2165 57.7977 64.9821 57.9469 64.6838C58.0996 64.3855 58.1759 64.0429 58.1759 63.6558C58.1759 63.2687 58.0996 62.9278 57.9469 62.6331C57.7977 62.3383 57.5651 62.1093 57.2491 61.9459C56.9366 61.779 56.5335 61.6956 56.0399 61.6956H54.2288V70.9534H52.2526ZM61.4265 61.7009V60.0443H70.1304V61.7009H66.7586V70.9534H64.7984V61.7009H61.4265ZM78.6851 60.0443H80.6613V67.1714C80.6613 67.9527 80.4766 68.6398 80.1073 69.2328C79.7415 69.8259 79.2266 70.2893 78.5626 70.6231C77.8985 70.9534 77.1226 71.1185 76.2348 71.1185C75.3435 71.1185 74.5658 70.9534 73.9017 70.6231C73.2376 70.2893 72.7227 69.8259 72.3569 69.2328C71.9912 68.6398 71.8083 67.9527 71.8083 67.1714V60.0443H73.7845V67.0063C73.7845 67.4608 73.8839 67.8657 74.0828 68.2208C74.2852 68.5759 74.5693 68.8546 74.9351 69.0571C75.3008 69.2559 75.7341 69.3554 76.2348 69.3554C76.7355 69.3554 77.1687 69.2559 77.5345 69.0571C77.9038 68.8546 78.1879 68.5759 78.3868 68.2208C78.5856 67.8657 78.6851 67.4608 78.6851 67.0063V60.0443ZM82.8093 70.9534V60.0443H86.9002C87.7382 60.0443 88.4414 60.1899 89.0096 60.4811C89.5813 60.7723 90.0128 61.1806 90.3039 61.7062C90.5987 62.2282 90.7461 62.8372 90.7461 63.5333C90.7461 64.2328 90.5969 64.8401 90.2986 65.355C90.0039 65.8664 89.5689 66.2623 88.9936 66.5429C88.4183 66.8198 87.7116 66.9583 86.8735 66.9583H83.9598V65.3177H86.6072C87.0973 65.3177 87.4985 65.2502 87.811 65.1153C88.1235 64.9768 88.3544 64.7762 88.5035 64.5134C88.6562 64.247 88.7326 63.9203 88.7326 63.5333C88.7326 63.1462 88.6562 62.8159 88.5035 62.5425C88.3508 62.2655 88.1182 62.056 87.8057 61.914C87.4932 61.7684 87.0902 61.6956 86.5966 61.6956H84.7855V70.9534H82.8093ZM88.4449 66.0102L91.1456 70.9534H88.9403L86.2876 66.0102H88.4449ZM92.5651 70.9534V60.0443H99.6603V61.7009H94.5413V64.6625H99.2928V66.3191H94.5413V69.2968H99.7029V70.9534H92.5651Z" fill="#4C4C4C"/>

</svg>
