<svg width="30" height="30" viewBox="0 0 30 30" fill="none" xmlns="http://www.w3.org/2000/svg">
<g clip-path="url(#clip0_196_7136)">
<path d="M13.5352 0.0413074C10.6934 0.328417 7.98637 1.4124 5.74223 3.15264C5.05668 3.68584 3.89067 4.83428 3.32231 5.5374C1.68754 7.56475 0.621135 9.93193 0.164103 12.5628C-0.00581869 13.5706 -0.0526937 15.7913 0.082072 16.8167C0.334025 18.7034 0.796916 20.221 1.62309 21.844C2.31449 23.2093 3.12309 24.3284 4.24809 25.4827C6.67387 27.973 9.65629 29.4554 13.1836 29.9183C14.2032 30.0472 16.4239 30.0062 17.4375 29.8304C18.9727 29.5667 20.2793 29.1448 21.6504 28.471C23.1036 27.7562 24.2754 26.93 25.4825 25.7523C27.8086 23.4847 29.2735 20.6897 29.8301 17.4378C30.0059 16.4183 30.0469 14.2679 29.918 13.1839C29.379 8.7835 26.9473 4.86943 23.2325 2.42607C21.3047 1.16045 19.1602 0.375292 16.875 0.0881824C16.2129 0.0061512 14.1446 -0.0231457 13.5352 0.0413074ZM15.334 4.07256C15.6914 4.17803 16.0723 4.55889 16.1661 4.89873C16.2071 5.05693 16.2305 6.92607 16.2305 10.7054C16.2305 13.7757 16.2481 16.2894 16.2774 16.2894C16.3008 16.2894 16.9805 15.6272 17.7832 14.8245C19.3829 13.2249 19.4942 13.1429 20.0391 13.1956C20.8477 13.2776 21.3575 14.2034 20.9825 14.9183C20.8125 15.2522 15.7325 20.303 15.4571 20.4202C15.1641 20.5374 14.7891 20.5315 14.502 20.3968C14.3438 20.3206 13.4004 19.4124 11.625 17.6312C9.15825 15.1468 8.9766 14.9534 8.90629 14.6839C8.64848 13.7288 9.7266 12.844 10.5938 13.2952C10.711 13.3597 11.4551 14.0569 12.2461 14.848C13.0372 15.639 13.6993 16.2894 13.7227 16.2894C13.752 16.2894 13.7696 13.7757 13.7696 10.7054C13.7696 6.92607 13.793 5.05693 13.834 4.89873C13.9219 4.57646 14.3145 4.17803 14.6426 4.07842C14.9883 3.96709 14.9825 3.96709 15.334 4.07256ZM20.4493 22.3362C20.7715 22.5062 21.0059 22.7991 21.0997 23.1507C21.2344 23.6605 20.9532 24.2347 20.4434 24.4983C20.2266 24.6038 20.0508 24.6097 15 24.6097C9.94926 24.6097 9.77348 24.6038 9.55668 24.4983C9.04692 24.2347 8.76567 23.6605 8.90043 23.1507C8.99418 22.7991 9.22856 22.5062 9.55082 22.3362L9.80864 22.2073H15H20.1915L20.4493 22.3362Z" fill="#FFB628"/>
</g>
<defs>
<clipPath id="clip0_196_7136">
<rect width="30" height="30" fill="white"/>
</clipPath>
</defs>
</svg>
