<svg width="35" height="35" viewBox="0 0 35 35" fill="none" xmlns="http://www.w3.org/2000/svg">
<g id="Group 33939">
<path id="Vector" d="M17.5 0C7.83594 0 0 7.83594 0 17.5C0 27.1641 7.83594 35 17.5 35C27.1641 35 35 27.1641 35 17.5C35 7.83594 27.1641 0 17.5 0ZM17.5 32.0312C9.47656 32.0312 2.96875 25.5234 2.96875 17.5C2.96875 9.47656 9.47656 2.96875 17.5 2.96875C25.5234 2.96875 32.0312 9.47656 32.0312 17.5C32.0312 25.5234 25.5234 32.0312 17.5 32.0312Z" fill="#FFB628"/>
<path id="Vector_2" d="M21.8593 9.87109C20.6874 8.84375 19.1405 8.28125 17.4999 8.28125C15.8593 8.28125 14.3124 8.84766 13.1405 9.87109C11.9218 10.9375 11.2499 12.3711 11.2499 13.9062V14.2031C11.2499 14.375 11.3905 14.5156 11.5624 14.5156H13.4374C13.6093 14.5156 13.7499 14.375 13.7499 14.2031V13.9062C13.7499 12.1836 15.4335 10.7812 17.4999 10.7812C19.5663 10.7812 21.2499 12.1836 21.2499 13.9062C21.2499 15.1211 20.3905 16.2344 19.0585 16.7461C18.2303 17.0625 17.5272 17.6172 17.0233 18.3437C16.5116 19.0859 16.246 19.9766 16.246 20.8789V21.7187C16.246 21.8906 16.3866 22.0312 16.5585 22.0312H18.4335C18.6053 22.0312 18.746 21.8906 18.746 21.7187V20.832C18.748 20.4528 18.8642 20.083 19.0795 19.7708C19.2949 19.4587 19.5992 19.2186 19.953 19.082C22.2577 18.1953 23.746 16.1641 23.746 13.9062C23.7499 12.3711 23.078 10.9375 21.8593 9.87109ZM15.9374 26.0937C15.9374 26.5081 16.102 26.9056 16.395 27.1986C16.688 27.4916 17.0855 27.6562 17.4999 27.6562C17.9143 27.6562 18.3117 27.4916 18.6047 27.1986C18.8978 26.9056 19.0624 26.5081 19.0624 26.0937C19.0624 25.6793 18.8978 25.2819 18.6047 24.9889C18.3117 24.6959 17.9143 24.5312 17.4999 24.5312C17.0855 24.5312 16.688 24.6959 16.395 24.9889C16.102 25.2819 15.9374 25.6793 15.9374 26.0937Z" fill="#FFB628"/>
</g>
</svg>
