<svg width="27" height="27" viewBox="0 0 27 27" fill="none" xmlns="http://www.w3.org/2000/svg">
<g clip-path="url(#clip0_196_7007)">
<path d="M7.78359 3.32227C4.79883 4.1291 2.29395 4.81992 2.22539 4.86211C2.15156 4.89902 2.03027 5.02559 1.95645 5.13633L1.81934 5.34727L1.80352 14.3807L1.79297 23.4141H0.896484H0V24.2842V25.1543H13.5H27V24.2842V23.4141H20.6982H14.3965V16.3477V9.28125H18.9053H23.4141V14.0537V18.8262H24.3105H25.207V13.5369C25.207 8.50605 25.2018 8.24238 25.1068 8.03672C24.9961 7.78887 24.8062 7.62539 24.5373 7.53574C24.3949 7.48828 22.9922 7.48301 18.8314 7.49883C13.6477 7.51992 13.3049 7.52519 13.115 7.61484C13.0096 7.66758 12.8672 7.78887 12.7986 7.87852L12.6826 8.04199L12.6668 15.7307L12.6562 23.4141H8.12109H3.58594L3.59648 14.8605L3.6123 6.30703L8.06836 5.10469C10.5205 4.44551 12.5561 3.90234 12.593 3.90234C12.6404 3.90234 12.6562 4.13437 12.6562 4.87793V5.85352H13.5264H14.3965V4.16074C14.3965 2.28867 14.3912 2.24121 14.0643 1.99863C13.9324 1.90371 13.8217 1.87207 13.5527 1.86152C13.2521 1.85098 12.5824 2.01973 7.78359 3.32227Z" fill="#222663"/>
<path d="M6.01172 8.4375V9.33398H8.09473H10.1777V8.4375V7.54102H8.09473H6.01172V8.4375Z" fill="#222663"/>
<path d="M6.01172 12.3926V13.2891H8.09473H10.1777V12.3926V11.4961H8.09473H6.01172V12.3926Z" fill="#222663"/>
<path d="M16.8223 12.3926V13.2891H18.9053H20.9883V12.3926V11.4961H18.9053H16.8223V12.3926Z" fill="#222663"/>
<path d="M6.01172 16.2949V17.1914H8.09473H10.1777V16.2949V15.3984H8.09473H6.01172V16.2949Z" fill="#222663"/>
<path d="M16.8223 16.2949V17.1914H18.9053H20.9883V16.2949V15.3984H18.9053H16.8223V16.2949Z" fill="#222663"/>
<path d="M6.01172 20.25V21.1465H8.09473H10.1777V20.25V19.3535H8.09473H6.01172V20.25Z" fill="#222663"/>
<path d="M16.8223 20.25V21.1465H18.9053H20.9883V20.25V19.3535H18.9053H16.8223V20.25Z" fill="#222663"/>
<path d="M23.4141 21.1729V21.9902H24.3105H25.207V21.1729V20.3555H24.3105H23.4141V21.1729Z" fill="#222663"/>
</g>
<defs>
<clipPath id="clip0_196_7007">
<rect width="27" height="27" fill="white"/>
</clipPath>
</defs>
</svg>
