<svg width="26" height="26" viewBox="0 0 26 26" fill="none" xmlns="http://www.w3.org/2000/svg">
<g clip-path="url(#clip0_196_6984)">
<path d="M1.88401 3.12812C1.04612 3.35156 0.335181 4.0625 0.0812744 4.9207C-0.0406006 5.32695 -0.0406006 8.43477 0.0812744 8.84102C0.213306 9.29805 0.451978 9.68398 0.79729 10.0039C1.35081 10.5219 1.8637 10.7148 2.69143 10.7148C3.50393 10.7148 4.08791 10.4863 4.59573 9.97852C5.12385 9.45039 5.37776 8.80039 5.38284 7.98281V7.61719H4.59573H3.80862V7.90664C3.80862 8.30781 3.73245 8.55156 3.53948 8.76992C3.32112 9.01367 3.03674 9.14062 2.6762 9.14062C2.19885 9.14062 1.86877 8.95273 1.67073 8.57187C1.5844 8.39922 1.57424 8.25703 1.57424 6.8707C1.57424 5.39805 1.57932 5.35234 1.69104 5.1543C1.86877 4.83437 2.17346 4.65664 2.56956 4.63125C2.98596 4.60078 3.28049 4.7125 3.52424 4.97656C3.72737 5.20508 3.80862 5.44375 3.80862 5.85V6.14453H4.59573H5.38284V5.79922C5.38284 4.46367 4.6262 3.43789 3.4176 3.12305C3.05198 3.02656 2.24456 3.03164 1.88401 3.12812Z" fill="#222663"/>
<path d="M8.80042 3.12305C7.87112 3.37695 7.15002 4.1082 6.93167 5.03242C6.82502 5.49961 6.82502 8.26211 6.93167 8.7293C7.15002 9.64844 7.8762 10.4 8.79026 10.6387C8.9426 10.6793 9.28284 10.7148 9.5469 10.7148C10.4 10.7148 10.9332 10.5066 11.4817 9.9582C11.8371 9.60273 12.0199 9.29805 12.1571 8.84102C12.2789 8.43477 12.2789 5.32695 12.1571 4.9207C12.0199 4.46367 11.8321 4.15391 11.4817 3.80859C10.9129 3.25 10.3949 3.04687 9.5469 3.05195C9.28284 3.05195 8.9426 3.0875 8.80042 3.12305ZM10.2121 4.79883C10.3289 4.88516 10.4813 5.05273 10.5473 5.17461C10.6641 5.39297 10.6641 5.42852 10.6641 6.87578C10.6641 8.31289 10.659 8.36367 10.5524 8.58203C10.4813 8.71406 10.3442 8.87148 10.2172 8.96289C9.92268 9.16602 9.36917 9.20664 9.05432 9.04922C8.79534 8.91211 8.55159 8.63789 8.48557 8.39414C8.41448 8.14023 8.41448 5.62148 8.48557 5.36758C8.55159 5.11875 8.80549 4.83437 9.06448 4.7125C9.21682 4.64141 9.35901 4.62109 9.63323 4.63125C9.94299 4.64648 10.0293 4.67187 10.2121 4.79883Z" fill="#222663"/>
<path d="M13.7617 6.88086V10.7148H15.3512C17.0676 10.7148 17.2301 10.6945 17.7633 10.4254C18.1391 10.2375 18.6215 9.75508 18.8297 9.36406C19.1141 8.8207 19.1445 8.57695 19.1445 6.88086C19.1445 5.18477 19.109 4.93594 18.8246 4.39766C18.6164 3.99648 18.134 3.51914 17.7633 3.34141C17.2047 3.06719 17.0219 3.04688 15.3258 3.04688H13.7617V6.88086ZM16.9355 4.71758C17.1945 4.83438 17.4484 5.11875 17.5145 5.36758C17.5855 5.62148 17.5855 8.14023 17.5145 8.39414C17.4484 8.63281 17.2098 8.91211 16.9559 9.04414C16.7934 9.12539 16.6562 9.14062 16.0469 9.14062H15.3359V6.88086V4.62109H16.0367C16.6004 4.62109 16.773 4.64141 16.9355 4.71758Z" fill="#222663"/>
<path d="M20.6172 6.88086V10.7148H23.3086H26V9.92773V9.14062H24.0957H22.1914V8.4043V7.66797H23.5879H24.9844V6.88086V6.09375H23.5879H22.1914V5.35742V4.62109H24.0957H26V3.83398V3.04688H23.3086H20.6172V6.88086Z" fill="#222663"/>
<path d="M0 13.7617V15.3359H0.787109H1.57422V14.5742V13.8125H2.33594H3.09766V13V12.1875H1.54883H0V13.7617Z" fill="#222663"/>
<path d="M4.57031 13V13.8125H6.11914H7.66797V13V12.1875H6.11914H4.57031V13Z" fill="#222663"/>
<path d="M9.14062 13V13.8125H10.6895H12.2383V13V12.1875H10.6895H9.14062V13Z" fill="#222663"/>
<path d="M13.7617 13V13.8125H15.3105H16.8594V13V12.1875H15.3105H13.7617V13Z" fill="#222663"/>
<path d="M18.332 13V13.8125H19.8809H21.4297V13V12.1875H19.8809H18.332V13Z" fill="#222663"/>
<path d="M22.9023 13V13.8125H23.6641H24.4258V14.5742V15.3359H25.2129H26V13.7617V12.1875H24.4512H22.9023V13Z" fill="#222663"/>
<path d="M4.54492 16.0469L3.98633 16.6055L4.53477 17.1488L5.07812 17.6973L4.54492 18.2305L4.01172 18.7637L4.57031 19.3223L5.12891 19.8809L5.66211 19.3477L6.19531 18.8145L6.71836 19.3375C7.00273 19.6219 7.26172 19.8555 7.28711 19.8555C7.35312 19.8555 8.37891 18.8297 8.37891 18.7637C8.37891 18.7383 8.14531 18.4793 7.86094 18.1949L7.33789 17.6719L7.87109 17.1387L8.4043 16.6055L7.8457 16.0469L7.28711 15.4883L6.75391 16.0215L6.2207 16.5547L5.6875 16.0215C5.39297 15.727 5.14414 15.4883 5.12891 15.4883C5.11367 15.4883 4.84961 15.7422 4.54492 16.0469Z" fill="#222663"/>
<path d="M11.4004 16.0469L10.8418 16.6055L11.375 17.1387L11.9082 17.6719L11.3852 18.1949C11.1008 18.4793 10.8672 18.7383 10.8672 18.7637C10.8672 18.8297 11.893 19.8555 11.959 19.8555C11.9844 19.8555 12.2434 19.6219 12.5277 19.3375L13.0508 18.8145L13.584 19.3477L14.1172 19.8809L14.6758 19.3223L15.2344 18.7637L14.7012 18.2305L14.168 17.6973L14.7113 17.1539L15.2598 16.6055L14.6859 16.0316L14.1172 15.4629L13.5738 16.0113L13.0254 16.5547L12.4922 16.0215L11.959 15.4883L11.4004 16.0469Z" fill="#222663"/>
<path d="M18.1543 16.0469L17.5957 16.6055L18.1289 17.1387L18.6621 17.6719L18.1391 18.1949C17.8547 18.4793 17.6211 18.7383 17.6211 18.7637C17.6211 18.8297 18.6469 19.8555 18.7129 19.8555C18.7383 19.8555 18.9973 19.6219 19.2816 19.3375L19.8047 18.8145L20.3379 19.3477L20.8711 19.8809L21.4297 19.3223L21.9883 18.7637L21.4551 18.2305L20.9219 17.6973L21.4652 17.1539L22.0137 16.6055L21.4398 16.0316L20.8711 15.4629L20.3277 16.0113L19.7793 16.5547L19.2461 16.0215L18.7129 15.4883L18.1543 16.0469Z" fill="#222663"/>
<path d="M0 17.5957V18.3828H0.787109H1.57422V17.5957V16.8086H0.787109H0V17.5957Z" fill="#222663"/>
<path d="M24.4258 17.5957V18.3828H25.2129H26V17.5957V16.8086H25.2129H24.4258V17.5957Z" fill="#222663"/>
<path d="M0 21.4043V22.9531H1.54883H3.09766V22.166V21.3789H2.33594H1.57422V20.6172V19.8555H0.787109H0V21.4043Z" fill="#222663"/>
<path d="M24.4258 20.6172V21.3789H23.6641H22.9023V22.166V22.9531H24.4512H26V21.4043V19.8555H25.2129H24.4258V20.6172Z" fill="#222663"/>
<path d="M4.57031 22.166V22.9531H6.11914H7.66797V22.166V21.3789H6.11914H4.57031V22.166Z" fill="#222663"/>
<path d="M9.14062 22.166V22.9531H10.6895H12.2383V22.166V21.3789H10.6895H9.14062V22.166Z" fill="#222663"/>
<path d="M13.7617 22.166V22.9531H15.3105H16.8594V22.166V21.3789H15.3105H13.7617V22.166Z" fill="#222663"/>
<path d="M18.332 22.166V22.9531H19.8809H21.4297V22.166V21.3789H19.8809H18.332V22.166Z" fill="#222663"/>
</g>
<defs>
<clipPath id="clip0_196_6984">
<rect width="26" height="26" fill="white"/>
</clipPath>
</defs>
</svg>
