<svg width="44" height="40" viewBox="0 0 44 40" fill="none" xmlns="http://www.w3.org/2000/svg">
<path d="M20.1666 33.3334H11.9166C9.13603 33.3334 6.76064 32.4584 4.79042 30.7084C2.81897 28.9584 1.83325 26.8195 1.83325 24.2917C1.83325 22.1251 2.55131 20.1945 3.98742 18.5001C5.42353 16.8056 7.3027 15.7223 9.62492 15.2501C10.3888 12.6945 11.9166 10.6251 14.2083 9.04175C16.4999 7.45842 19.0971 6.66675 21.9999 6.66675C25.5749 6.66675 28.6073 7.79841 31.0969 10.0617C33.5878 12.3262 34.8333 15.0834 34.8333 18.3334C36.9416 18.5556 38.6912 19.3817 40.0821 20.8117C41.4718 22.2429 42.1666 23.9167 42.1666 25.8334C42.1666 27.9167 41.3648 29.6879 39.7612 31.1467C38.1565 32.6045 36.2083 33.3334 33.9166 33.3334H23.8333V21.4167L26.7666 24.0001L29.3333 21.6667L21.9999 15.0001L14.6666 21.6667L17.2333 24.0001L20.1666 21.4167V33.3334Z" fill="white"/>
</svg>
