<svg width="29" height="38" viewBox="0 0 29 38" fill="none" xmlns="http://www.w3.org/2000/svg">
<g clip-path="url(#clip0_49_1876)">
<path d="M13.7372 19.0074C13.3596 17.8199 13.3672 15.5266 13.5862 15.5266C14.2206 15.5266 14.1602 18.2652 13.7372 19.0074ZM13.6089 22.5105C13.0273 24.0098 12.3023 25.7242 11.4641 27.1641C12.8461 26.6445 14.4094 25.8875 16.2143 25.5387C15.2552 24.8262 14.3339 23.802 13.6089 22.5105ZM6.50234 31.773C6.50234 31.8324 7.49922 31.3723 9.13802 28.7895C8.63203 29.257 6.94036 30.6078 6.50234 31.773ZM18.7292 11.875H29V36.2188C29 37.2059 28.1919 38 27.1875 38H1.8125C0.808073 38 0 37.2059 0 36.2188V1.78125C0 0.794141 0.808073 0 1.8125 0H16.9167V10.0938C16.9167 11.0734 17.7323 11.875 18.7292 11.875ZM18.125 24.6258C16.6146 23.7203 15.6102 22.4734 14.9003 20.6328C15.2401 19.2598 15.7763 17.1742 15.3685 15.868C15.0135 13.6859 12.1664 13.9012 11.7586 15.3633C11.381 16.7215 11.7284 18.6363 12.3703 21.0781C11.4943 23.1266 10.2029 25.8727 9.28906 27.4461C9.28151 27.4461 9.28151 27.4535 9.27396 27.4535C7.22734 28.4852 3.71563 30.7563 5.15807 32.5004C5.58099 33.0125 6.36641 33.2426 6.78177 33.2426C8.13359 33.2426 9.47786 31.9066 11.3961 28.6559C13.3445 28.025 15.4818 27.2383 17.3622 26.934C19.001 27.8098 20.9193 28.3813 22.1956 28.3813C24.4008 28.3813 24.5518 26.0063 23.6833 25.1602C22.6336 24.1508 19.5826 24.4402 18.125 24.6258ZM28.4714 7.79297L21.0703 0.519531C20.7305 0.185547 20.2698 0 19.7865 0H19.3333V9.5H29V9.04727C29 8.57969 28.8112 8.12695 28.4714 7.79297ZM22.8753 26.741C23.1849 26.5406 22.6865 25.8578 19.643 26.073C22.4448 27.2457 22.8753 26.741 22.8753 26.741Z" fill="white"/>
</g>
<defs>
<clipPath id="clip0_49_1876">
<rect width="29" height="38" fill="white"/>
</clipPath>
</defs>
</svg>
