<svg width="26" height="26" viewBox="0 0 26 26" fill="none" xmlns="http://www.w3.org/2000/svg">
<path d="M15.3969 1.21848C15.1937 1.27434 14.8637 1.40129 14.6605 1.50285C14.3152 1.68059 13.8785 2.10715 7.43437 8.55129C1.06641 14.9243 0.563672 15.4372 0.391016 15.7673C0.106641 16.3208 0 16.788 0 17.4431C0 18.1032 0.111719 18.5654 0.396094 19.1189C0.553516 19.4286 0.797266 19.6978 2.35625 21.2669L4.13359 23.0544H2.51367C1.48281 23.0544 0.8125 23.0747 0.685547 23.1103C0.233594 23.2372 0 23.5571 0 24.0446C0 24.3595 0.0457031 24.4814 0.248828 24.6946C0.533203 25.0044 -0.421484 24.9841 12.5684 24.9841C24.4207 24.9841 24.4816 24.9841 24.6797 24.8825C24.9336 24.7505 25.1418 24.4458 25.1773 24.1462C25.2281 23.6943 24.9184 23.2271 24.4918 23.1103C24.3648 23.0747 22.7602 23.0544 19.7285 23.0544H15.1582L20.216 17.9915C23.3695 14.8329 25.3398 12.8169 25.4516 12.6443C25.8527 12.0196 26 11.5017 26 10.7146C26 10.0696 25.9187 9.72434 25.6395 9.14035L25.4312 8.70871L21.9172 5.19465C18.6012 1.87863 18.3879 1.67551 18.0324 1.49777C17.8293 1.39621 17.4891 1.26926 17.2758 1.2134C16.7629 1.08137 15.9098 1.08645 15.3969 1.21848ZM16.8949 3.10246C17.1742 3.20403 17.3621 3.38684 20.475 6.48957C22.8109 8.82043 23.8012 9.84113 23.9027 10.0239C24.0297 10.2525 24.0449 10.3337 24.0449 10.7146C24.0449 11.0599 24.0195 11.1919 23.9332 11.3747C23.852 11.5321 23.1918 12.2279 21.7344 13.6853L19.6523 15.7673L15.473 11.588L11.2988 7.41379L13.4062 5.31145C15.3156 3.40715 15.5391 3.20403 15.793 3.10754C16.1535 2.97043 16.5293 2.97043 16.8949 3.10246ZM14.0918 12.9997L18.2559 17.1638L15.3105 20.1091L12.3652 23.0544H9.62305H6.88086L4.53477 20.7083C2.925 19.0884 2.1582 18.2861 2.07695 18.1286C2.00078 17.9712 1.95508 17.7782 1.93984 17.5193C1.89922 16.788 1.65547 17.0724 6.0125 12.7052C8.13516 10.5775 9.88711 8.83566 9.90234 8.83566C9.91758 8.83566 11.8016 10.7095 14.0918 12.9997Z" fill="#222663"/>
</svg>
