<svg width="62" height="54" viewBox="0 0 62 54" fill="none" xmlns="http://www.w3.org/2000/svg">
<path d="M3.65198 53.0748C2.52168 53.0748 1.68624 52.5834 1.14567 51.6005C0.60509 50.6176 0.60509 49.6348 1.14567 48.6519L28.4202 1.4743C28.9608 0.491433 29.8208 0 31.0002 0C32.1797 0 33.0397 0.491433 33.5803 1.4743L60.8548 48.6519C61.3954 49.6348 61.3954 50.6176 60.8548 51.6005C60.3142 52.5834 59.4788 53.0748 58.3485 53.0748H3.65198ZM31.0002 20.6402C30.1648 20.6402 29.465 20.9223 28.9008 21.4864C28.3347 22.0526 28.0516 22.7534 28.0516 23.5888V32.4346C28.0516 33.27 28.3347 33.9698 28.9008 34.534C29.465 35.1001 30.1648 35.3832 31.0002 35.3832C31.8357 35.3832 32.5365 35.1001 33.1026 34.534C33.6668 33.9698 33.9488 33.27 33.9488 32.4346V23.5888C33.9488 22.7534 33.6668 22.0526 33.1026 21.4864C32.5365 20.9223 31.8357 20.6402 31.0002 20.6402ZM31.0002 44.229C31.8357 44.229 32.5365 43.9459 33.1026 43.3798C33.6668 42.8156 33.9488 42.1158 33.9488 41.2804C33.9488 40.445 33.6668 39.7452 33.1026 39.181C32.5365 38.6149 31.8357 38.3318 31.0002 38.3318C30.1648 38.3318 29.465 38.6149 28.9008 39.181C28.3347 39.7452 28.0516 40.445 28.0516 41.2804C28.0516 42.1158 28.3347 42.8156 28.9008 43.3798C29.465 43.9459 30.1648 44.229 31.0002 44.229Z" fill="#FF1212"/>
</svg>
