<svg width="30" height="30" viewBox="0 0 30 30" fill="none" xmlns="http://www.w3.org/2000/svg">
<path d="M19.4942 2.67188C19.0137 3.19922 18.627 3.29297 17.6368 3.11133C13.0489 2.2793 8.7364 2.72461 6.07038 4.30078C4.66413 5.13867 3.79694 6.09961 3.03522 7.66992C2.24421 9.29297 1.93366 10.5293 1.89265 12.2227C1.85749 13.3828 1.91608 13.998 2.13874 14.8828C2.34968 15.709 2.50788 16.0957 3.2403 17.5312C4.52351 20.0449 5.03327 21.9492 4.96296 23.9648C4.9278 24.9902 4.78718 25.6582 4.42976 26.502C4.1778 27.0762 4.16608 27.2578 4.3653 27.4512L4.50593 27.5977H9.59772C14.5079 27.5977 14.7012 27.5918 14.8301 27.4863C15.0001 27.3516 15.0059 27.0586 14.8653 26.4551C14.6602 25.5879 14.7891 24.8789 15.1876 24.7031C15.293 24.6562 16.2012 24.4688 17.1973 24.2871C18.1993 24.1055 19.1368 23.918 19.2833 23.8711C19.6114 23.7656 19.9923 23.4551 20.1856 23.127C20.3321 22.875 20.6251 21.7441 20.6251 21.4395C20.6251 21.2051 20.4962 20.918 20.3204 20.7598C20.2442 20.6836 19.6817 20.4434 19.0723 20.2207C17.9063 19.7871 17.7423 19.6934 17.8477 19.5234C17.8829 19.4707 18.4512 19.207 19.1075 18.9434C20.1387 18.5215 20.3321 18.4277 20.5137 18.2227C20.7423 17.9707 20.8887 17.5605 20.8419 17.3027C20.8301 17.2148 20.7598 16.8516 20.6954 16.4941C20.6251 16.1426 20.5782 15.8496 20.5841 15.8496C20.5899 15.8438 20.8419 15.6328 21.1466 15.3809C21.7383 14.8828 21.9141 14.6191 21.9141 14.209C21.9141 13.8281 21.7383 13.5586 20.836 12.5449L19.9805 11.584V10.9746C19.9805 9.83203 19.793 8.69531 19.5176 8.15625L19.4063 7.93945L19.6876 7.61719C20.836 6.28711 21.129 4.85156 20.5899 3.15234C20.4141 2.58984 20.2501 2.40234 19.9512 2.40234C19.7755 2.40234 19.6993 2.44922 19.4942 2.67188Z" fill="#222663"/>
<path d="M26.0098 15.4395C25.9219 15.4863 25.8223 15.6094 25.7872 15.709C25.711 15.9316 25.793 16.125 26.1329 16.5527C26.7891 17.373 27.129 18.4395 27.129 19.6582C27.129 20.9297 26.8067 21.8965 26.045 22.8984C25.6876 23.3613 25.6465 23.5547 25.8458 23.8125C25.9395 23.9355 26.0157 23.9648 26.2208 23.9648C26.4668 23.9648 26.4961 23.9473 26.7657 23.6191C27.3223 22.957 27.709 22.1895 27.9668 21.2402C28.1426 20.5898 28.1543 18.832 27.9844 18.1641C27.7501 17.2383 27.2696 16.2656 26.7598 15.6855C26.4844 15.375 26.2559 15.2988 26.0098 15.4395Z" fill="#222663"/>
<path d="M24.4747 16.7578C24.1935 16.9805 24.2111 17.2734 24.5333 17.6602C24.6095 17.7539 24.7501 17.9824 24.8439 18.1641C25.4239 19.3125 25.2833 20.6777 24.4864 21.7148C24.2228 22.0547 24.1935 22.2832 24.381 22.5234C24.4747 22.6406 24.5509 22.6758 24.7443 22.6758C24.9493 22.6758 25.0138 22.6406 25.2306 22.4121C25.5294 22.084 25.84 21.5039 26.0275 20.918C26.1447 20.5371 26.1622 20.3613 26.1564 19.6289C26.1564 18.8789 26.1388 18.7266 26.004 18.3281C25.8165 17.7715 25.4943 17.1797 25.2013 16.875C24.9435 16.6055 24.715 16.5703 24.4747 16.7578Z" fill="#222663"/>
<path d="M22.9864 18.0175C22.9161 18.0702 22.8399 18.1992 22.8165 18.3105C22.7872 18.4745 22.8165 18.5683 23.0099 18.873C23.2149 19.207 23.2325 19.2773 23.2325 19.6581C23.2325 20.039 23.2149 20.1093 23.0157 20.4316C22.7521 20.8535 22.7403 21.041 22.9396 21.246C23.0567 21.3632 23.1329 21.3925 23.3321 21.3749C23.5489 21.3574 23.6075 21.3222 23.7892 21.082C24.3458 20.3437 24.4044 19.2304 23.9298 18.4218C23.6603 17.9589 23.2911 17.8007 22.9864 18.0175Z" fill="#222663"/>
</svg>
