<svg width="21" height="35" viewBox="0 0 21 35" fill="none" xmlns="http://www.w3.org/2000/svg">
<path id="image 2 (Traced)" fill-rule="evenodd" clip-rule="evenodd" d="M9.21215 0.0542374C8.88415 0.177633 8.65618 0.331826 8.45618 0.565751C8.05152 1.0388 8.06432 0.81309 8.06432 7.4909V13.6228L5.29908 10.9155C3.50685 9.16088 2.4393 8.16578 2.26518 8.08748C1.91526 7.93021 1.27226 7.92966 0.936678 8.08632C0.138202 8.45911 -0.218114 9.38913 0.138202 10.1705C0.245055 10.4049 1.12951 11.3164 3.84077 13.986L7.40295 17.4935L3.84077 21.001C1.12951 23.6706 0.245055 24.5821 0.138202 24.8165C-0.278636 25.7305 0.289438 26.8174 1.27915 26.9993C1.67373 27.0718 2.16326 26.9856 2.45189 26.7926C2.57349 26.7113 3.88606 25.456 5.36864 24.0029L8.06432 21.361V27.4944C8.06432 34.1703 8.05047 33.9256 8.45632 34.4259C8.67538 34.696 9.14001 34.9444 9.52005 34.9945C9.66649 35.0138 9.95018 34.9806 10.1587 34.9196C10.4921 34.8222 11.0894 34.3541 15.5198 30.7189C18.2621 28.4689 20.5717 26.5454 20.6522 26.4448C21.0405 25.9591 21.1072 25.3463 20.8345 24.7702C20.6799 24.4435 20.3388 24.1475 16.4567 20.9718C14.1411 19.0776 12.2465 17.5123 12.2465 17.4935C12.2465 17.4747 14.1411 15.9094 16.4567 14.0151C20.3388 10.8394 20.6799 10.5434 20.8345 10.2168C21.112 9.63044 21.0263 8.97356 20.6081 8.4821C20.3559 8.18556 10.5969 0.229168 10.3644 0.130479C10.0456 -0.00482559 9.47045 -0.0428777 9.21215 0.0542374ZM14.1687 7.31624C15.6322 8.51632 16.8277 9.51861 16.8254 9.54352C16.8231 9.56837 15.5866 10.5977 14.0776 11.8309L11.3339 14.073V9.55126C11.3339 5.9515 11.3516 5.04016 11.4209 5.08184C11.4687 5.11066 12.7052 6.11616 14.1687 7.31624ZM16.8254 25.4434C16.8293 25.4849 11.6205 29.7849 11.4209 29.9051C11.3516 29.9468 11.3339 29.0355 11.3339 25.4357V20.914L14.0776 23.1561C15.5866 24.3893 16.8231 25.4186 16.8254 25.4434Z" fill="#FFB628"/>
</svg>
