<svg width="35" height="35" viewBox="0 0 35 35" fill="none" xmlns="http://www.w3.org/2000/svg">
<g id="Group 33942">
<path id="Vector" d="M30.8212 18.4527V16.5348L33.228 14.4288C33.6717 14.0378 33.9628 13.5025 34.05 12.9175C34.1372 12.3326 34.0147 11.7357 33.7044 11.2323L30.746 6.21806C30.5262 5.83731 30.2101 5.52106 29.8295 5.30104C29.4488 5.08102 29.017 4.96496 28.5774 4.96451C28.3049 4.96243 28.0339 5.00477 27.7751 5.08987L24.729 6.11778C24.203 5.7683 23.6545 5.45422 23.0868 5.17762L22.4475 2.01867C22.3329 1.44155 22.0189 0.923123 21.5606 0.554156C21.1022 0.185189 20.5287 -0.0108133 19.9404 0.000460593H14.0738C13.4855 -0.0108133 12.912 0.185189 12.4536 0.554156C11.9953 0.923123 11.6813 1.44155 11.5667 2.01867L10.9274 5.17762C10.3557 5.45415 9.80292 5.76822 9.27271 6.11778L6.28926 5.03973C6.02764 4.97156 5.75672 4.94616 5.48699 4.96451C5.04734 4.96496 4.61554 5.08102 4.2349 5.30104C3.85426 5.52106 3.53818 5.83731 3.31835 6.21806L0.359977 11.2323C0.0673828 11.7349 -0.0413442 12.3237 0.0524182 12.8977C0.146181 13.4717 0.436598 13.9952 0.873932 14.3787L3.24314 16.5473V18.4652L0.873932 20.5712C0.424245 20.9573 0.125884 21.4902 0.0317965 22.0754C-0.0622908 22.6606 0.0539809 23.2602 0.359977 23.7677L3.31835 28.7819C3.53818 29.1627 3.85426 29.4789 4.2349 29.699C4.61554 29.919 5.04734 30.035 5.48699 30.0355C5.75945 30.0376 6.03043 29.9952 6.28926 29.9101L9.33539 28.8822C9.8613 29.2317 10.4099 29.5458 10.9775 29.8224L11.6168 32.9813C11.7315 33.5585 12.0454 34.0769 12.5038 34.4458C12.9621 34.8148 13.5356 35.0108 14.1239 34.9995H20.0407C20.629 35.0108 21.2025 34.8148 21.6608 34.4458C22.1192 34.0769 22.4332 33.5585 22.5478 32.9813L23.1871 29.8224C23.7588 29.5459 24.3116 29.2318 24.8418 28.8822L27.8754 29.9101C28.1342 29.9952 28.4052 30.0376 28.6776 30.0355C29.1173 30.035 29.5491 29.919 29.9297 29.699C30.3104 29.4789 30.6265 29.1627 30.8463 28.7819L33.7044 23.7677C33.997 23.2651 34.1057 22.6763 34.0119 22.1023C33.9182 21.5283 33.6278 21.0048 33.1904 20.6213L30.8212 18.4527ZM28.5774 27.5284L24.2777 26.0743C23.2712 26.9268 22.1208 27.5933 20.8806 28.0423L19.9906 32.5426H14.0738L13.1838 28.0925C11.9533 27.6307 10.8092 26.9654 9.7992 26.1244L5.48699 27.5284L2.52862 22.5142L5.93827 19.5057C5.70648 18.2081 5.70648 16.8797 5.93827 15.5821L2.52862 12.4858L5.48699 7.47161L9.78666 8.92573C10.7932 8.07318 11.9435 7.40675 13.1838 6.95766L14.0738 2.45742H19.9906L20.8806 6.90751C22.111 7.36935 23.2551 8.03463 24.2652 8.87559L28.5774 7.47161L31.5357 12.4858L28.1261 15.4943C28.3579 16.7919 28.3579 18.1203 28.1261 19.4179L31.5357 22.5142L28.5774 27.5284Z" fill="#FFB628"/>
<path id="Vector_2" d="M17.0323 25.0213C15.5447 25.0213 14.0905 24.5802 12.8537 23.7537C11.6168 22.9273 10.6528 21.7526 10.0835 20.3783C9.51425 19.0039 9.3653 17.4917 9.65551 16.0327C9.94572 14.5737 10.6621 13.2335 11.7139 12.1816C12.7658 11.1298 14.106 10.4134 15.565 10.1232C17.0239 9.83301 18.5362 9.98196 19.9106 10.5512C21.2849 11.1205 22.4596 12.0845 23.286 13.3214C24.1125 14.5583 24.5536 16.0124 24.5536 17.5C24.5636 18.4905 24.376 19.4731 24.0015 20.3901C23.6271 21.3072 23.0735 22.1403 22.3731 22.8408C21.6726 23.5412 20.8395 24.0948 19.9224 24.4692C19.0053 24.8437 18.0228 25.0313 17.0323 25.0213ZM17.0323 12.4858C16.3696 12.4704 15.7106 12.5895 15.0953 12.836C14.48 13.0826 13.9211 13.4513 13.4523 13.92C12.9836 14.3888 12.6148 14.9477 12.3683 15.563C12.1218 16.1784 12.0026 16.8373 12.0181 17.5C12.0026 18.1627 12.1218 18.8216 12.3683 19.437C12.6148 20.0523 12.9836 20.6112 13.4523 21.0799C13.9211 21.5487 14.48 21.9174 15.0953 22.164C15.7106 22.4105 16.3696 22.5296 17.0323 22.5142C17.695 22.5296 18.3539 22.4105 18.9692 22.164C19.5846 21.9174 20.1435 21.5487 20.6122 21.0799C21.081 20.6112 21.4497 20.0523 21.6962 19.437C21.9428 18.8216 22.0619 18.1627 22.0465 17.5C22.0619 16.8373 21.9428 16.1784 21.6962 15.563C21.4497 14.9477 21.081 14.3888 20.6122 13.92C20.1435 13.4513 19.5846 13.0826 18.9692 12.836C18.3539 12.5895 17.695 12.4704 17.0323 12.4858Z" fill="#FFB628"/>
</g>
</svg>
