<svg width="24" height="24" viewBox="0 0 24 24" fill="none" xmlns="http://www.w3.org/2000/svg">
<path d="M21.2822 8.58481H20.7058V5.80378C20.7058 5.78645 20.7031 5.76898 20.7008 5.75143C20.6999 5.64099 20.6647 5.53257 20.5891 5.44664L15.9619 0.160951C15.9604 0.159594 15.9591 0.159113 15.9582 0.157756C15.9306 0.126809 15.8985 0.101202 15.8644 0.0791842C15.8543 0.072312 15.8442 0.0666653 15.8336 0.0607561C15.8042 0.0447354 15.7729 0.0313848 15.7408 0.0217111C15.732 0.0193036 15.7242 0.0157581 15.7155 0.0134819C15.6806 0.00516514 15.6443 0 15.6075 0H4.23526C3.71599 0 3.29411 0.422447 3.29411 0.941194V8.58442H2.71789C1.97503 8.58442 1.37268 9.18655 1.37268 9.92968V16.925C1.37268 17.6678 1.97503 18.2702 2.71789 18.2702H3.29411V23.0588C3.29411 23.5777 3.71599 24 4.23526 24H19.7647C20.2835 24 20.7058 23.5777 20.7058 23.0588V18.2702H21.2821C22.0248 18.2702 22.6272 17.6678 22.6272 16.9251V9.92994C22.6272 9.1866 22.0248 8.58481 21.2822 8.58481ZM4.23526 0.941194H15.1369V5.75655C15.1369 6.01651 15.3478 6.2271 15.6075 6.2271H19.7647V8.58473H4.23526V0.941194ZM13.9115 13.2817C13.9115 15.3727 12.6433 16.6411 10.7793 16.6411C8.88682 16.6411 7.77951 15.2123 7.77951 13.3953C7.77951 11.4833 9.00019 10.0546 10.8832 10.0546C12.8423 10.0546 13.9115 11.5215 13.9115 13.2817ZM3.59601 16.5368V10.1589H5.04369V15.3258H7.58004V16.5365H3.59601V16.5368ZM19.7647 22.8037H4.23526V18.2702H19.7647V22.8037H19.7647ZM20.1867 16.2436C19.7419 16.3948 18.8998 16.6029 18.0576 16.6029C16.8938 16.6029 16.0514 16.3097 15.4645 15.7422C14.8782 15.1935 14.5563 14.3604 14.5659 13.4237C14.5753 11.3035 16.1176 10.0922 18.2091 10.0922C19.0326 10.0922 19.6663 10.2537 19.9788 10.4047L19.6759 11.559C19.3258 11.4077 18.8906 11.2846 18.1902 11.2846C16.9887 11.2846 16.08 11.9661 16.08 13.3478C16.08 14.6631 16.9032 15.4389 18.0861 15.4389C18.4172 15.4389 18.6824 15.4016 18.7957 15.3447V14.0101H17.8117V12.8842H20.1867V16.2436Z" fill="#222663"/>
<path d="M9.3031 13.3666C9.3031 14.6157 9.88996 15.4957 10.8549 15.4957C11.8296 15.4957 12.3879 14.5683 12.3879 13.329C12.3879 12.1842 11.839 11.1992 10.8455 11.1992C9.87087 11.1992 9.3031 12.1268 9.3031 13.3666Z" fill="#222663"/>
</svg>
